<svg width="28" height="25" viewBox="0 0 28 25" fill="none" xmlns="http://www.w3.org/2000/svg">
<path d="M10.4 0C13.1583 0 15.8035 0.978313 17.7539 2.71972C19.7043 4.46113 20.8 6.82299 20.8 9.28571C20.8 11.5857 19.856 13.7 18.304 15.3286L18.736 15.7143H20L28 22.8571L25.6 25L17.6 17.8571V16.7286L17.168 16.3429C15.2809 17.7811 12.8811 18.5713 10.4 18.5714C7.64175 18.5714 4.99647 17.5931 3.04609 15.8517C1.09571 14.1103 0 11.7484 0 9.28571C0 6.82299 1.09571 4.46113 3.04609 2.71972C4.99647 0.978313 7.64175 0 10.4 0ZM10.4 2.85714C6.4 2.85714 3.2 5.71429 3.2 9.28571C3.2 12.8571 6.4 15.7143 10.4 15.7143C14.4 15.7143 17.6 12.8571 17.6 9.28571C17.6 5.71429 14.4 2.85714 10.4 2.85714Z" fill="#414141"/>
</svg>
